<svg xmlns="http://www.w3.org/2000/svg" width="22.741" height="29.145" viewBox="0 0 22.741 29.145">
  <g id="apple" transform="translate(0)">
    <path id="Path_4383" data-name="Path 4383" d="M47.658,4.429A5.66,5.66,0,0,0,49.294,0a7.392,7.392,0,0,0-4.629,2.1A5.421,5.421,0,0,0,43,6.4,6.163,6.163,0,0,0,47.658,4.429Zm3.365,11.225a6.53,6.53,0,0,1,3.014-5.479,6.454,6.454,0,0,0-5.107-2.851c-2.176-.228-4.243,1.318-5.348,1.318s-2.8-1.288-4.607-1.253A6.807,6.807,0,0,0,33.2,11c-2.465,4.4-.632,10.93,1.77,14.5,1.174,1.749,2.572,3.711,4.408,3.64,1.772-.071,2.44-1.179,4.578-1.179s2.738,1.179,4.609,1.143c1.9-.035,3.109-1.783,4.273-3.538a16.085,16.085,0,0,0,1.934-4.092A6.34,6.34,0,0,1,51.023,15.655Z" transform="translate(-32.029)" fill="#ccd0d2"/>
  </g>
</svg>
