<svg xmlns="http://www.w3.org/2000/svg" width="220.697" height="66.359" viewBox="0 0 220.697 66.359">
  <g id="blogofooter" transform="translate(-55)">
    <g id="Group_16867" data-name="Group 16867" transform="translate(153.512 19.761)">
      <path id="Path_46687" data-name="Path 46687" d="M2.453,161.944v-27.6H20.8v4.647H8.03V145.7H18.374v4.566H8.03V157.3H20.8v4.647Zm31.761.445q-1.5,0-3.152-.162-1.616-.161-3.111-.4-1.455-.282-2.424-.485l.242-4.324q.97.121,2.3.283,1.374.161,2.788.283,1.455.082,2.667.081a5.708,5.708,0,0,0,3.435-.849,3.211,3.211,0,0,0,1.131-2.748,3.4,3.4,0,0,0-.525-2.02,2.829,2.829,0,0,0-1.455-1.131,6.551,6.551,0,0,0-2.182-.4h-5.5v-4.445h5.374a4.092,4.092,0,0,0,1.778-.4A3.357,3.357,0,0,0,37,144.488a3.045,3.045,0,0,0,.566-1.859,2.631,2.631,0,0,0-1.051-2.384,5.8,5.8,0,0,0-3.313-.727q-1.212,0-2.546.121t-2.546.283q-1.212.121-2.02.283l-.242-4.243q.889-.242,2.182-.485a26.632,26.632,0,0,1,2.748-.444,19.947,19.947,0,0,1,2.748-.2,17.323,17.323,0,0,1,5.536.727,5.36,5.36,0,0,1,3.111,2.3,7.868,7.868,0,0,1,.97,4.162,6.827,6.827,0,0,1-.364,2.384,5.129,5.129,0,0,1-.889,1.657A6.265,6.265,0,0,1,40.8,147.2q-.566.4-1.051.727a11.107,11.107,0,0,1,2.1,1.253,4.476,4.476,0,0,1,1.374,1.818,7.825,7.825,0,0,1,.485,3.031,9.9,9.9,0,0,1-1.051,4.889,6.182,6.182,0,0,1-3.152,2.667A14.873,14.873,0,0,1,34.215,162.388Zm15.311-.445V133.376H54.9v28.568Zm16.536.445a6.567,6.567,0,0,1-4.768-1.576,6.689,6.689,0,0,1-1.576-4.849,6.464,6.464,0,0,1,.808-3.515,4.5,4.5,0,0,1,2.384-1.859,13.2,13.2,0,0,1,3.919-.727l4.93-.444v-1.212a2.423,2.423,0,0,0-.727-2.02,3.274,3.274,0,0,0-2.142-.606q-1.131,0-2.626.081-1.455.081-2.909.2-1.414.121-2.465.242l-.162-3.8q1.051-.242,2.505-.485,1.495-.282,3.111-.444t2.99-.162a12.51,12.51,0,0,1,4.324.646A4.958,4.958,0,0,1,76.284,144a7.565,7.565,0,0,1,.889,3.96v9.253a1.212,1.212,0,0,0,.606.889,4.023,4.023,0,0,0,1.212.4l-.121,3.717q-.97.04-1.9.04a8.713,8.713,0,0,1-1.576-.121,4.743,4.743,0,0,1-1.616-.485,4.833,4.833,0,0,1-1.051-.768q-.646.282-1.738.647a18.083,18.083,0,0,1-2.384.606A13.366,13.366,0,0,1,66.061,162.388Zm1.293-4a8.682,8.682,0,0,0,1.616-.162q.849-.161,1.576-.364a11.125,11.125,0,0,0,1.212-.444v-4.647l-4.122.364a2.821,2.821,0,0,0-1.94.808,2.738,2.738,0,0,0-.566,1.859,3.061,3.061,0,0,0,.525,1.9A2.07,2.07,0,0,0,67.354,158.388Zm15.827,3.556V141.659h5.374v1.293a9.6,9.6,0,0,1,1.576-.768,15.008,15.008,0,0,1,1.94-.687,7.783,7.783,0,0,1,2.02-.283,7.927,7.927,0,0,1,4.364,1.01,5.3,5.3,0,0,1,2.222,3.233,22.169,22.169,0,0,1,.647,5.98v10.506H95.91V151.721a18.415,18.415,0,0,0-.242-3.354,3.044,3.044,0,0,0-.929-1.859,3.112,3.112,0,0,0-2.02-.566,7.87,7.87,0,0,0-1.535.162,9.311,9.311,0,0,0-1.5.364,7.877,7.877,0,0,0-1.131.485v14.991Zm23.6,0V133.376h5.374V149.3l2.384-.081,4.2-7.556h5.617l-5.132,9.536,5.415,10.748h-5.657l-4.364-8.041-2.465.121v7.92Z" transform="translate(-2.453 -133.376)" fill="#333864"/>
    </g>
    <path id="Path_46690" data-name="Path 46690" d="M60,47H89.2V82.17H85.482c-8.92,0-13.379,0-16.786-1.736a15.926,15.926,0,0,1-6.96-6.96C60,70.068,60,65.608,60,56.688Z" transform="translate(-1.682 -15.811)" fill="#333864"/>
    <path id="Path_46691" data-name="Path 46691" d="M145.2,47H116V82.17h3.716c8.919,0,13.379,0,16.786-1.736a15.926,15.926,0,0,0,6.96-6.96c1.736-3.407,1.736-7.867,1.736-16.786Z" transform="translate(-20.521 -15.811)" fill="#333864"/>
    <path id="Path_46692" data-name="Path 46692" d="M56.3,6.522C55,9.077,55,12.422,55,19.111v4.114h74.322V19.111c0-6.69,0-10.034-1.3-12.59A11.945,11.945,0,0,0,122.8,1.3C120.245,0,116.9,0,110.211,0h-36.1c-6.69,0-10.034,0-12.589,1.3A11.945,11.945,0,0,0,56.3,6.522ZM97.554,9.943a1.991,1.991,0,0,1,0,3.339l-6.3,4.091a1.991,1.991,0,0,1-3.075-1.67V7.521a1.991,1.991,0,0,1,3.075-1.67Z" fill="#333864" fill-rule="evenodd"/>
    <path id="Path_46693" data-name="Path 46693" d="M56.3,6.522C55,9.077,55,12.422,55,19.111v4.114h74.322V19.111c0-6.69,0-10.034-1.3-12.59A11.945,11.945,0,0,0,122.8,1.3C120.245,0,116.9,0,110.211,0h-36.1c-6.69,0-10.034,0-12.589,1.3A11.945,11.945,0,0,0,56.3,6.522ZM97.554,9.943a1.991,1.991,0,0,1,0,3.339l-6.3,4.091a1.991,1.991,0,0,1-3.075-1.67V7.521a1.991,1.991,0,0,1,3.075-1.67Z" fill="#333864" fill-rule="evenodd"/>
  </g>
</svg>
