<svg xmlns="http://www.w3.org/2000/svg" width="133.697" height="40.2" viewBox="0 0 133.697 40.2">
  <g id="blogo" transform="translate(-55)">
    <g id="Group_16867" data-name="Group 16867" transform="translate(114.678 11.971)">
      <path id="Path_46687" data-name="Path 46687" d="M2.453,150.682V133.963H13.567v2.815H5.832v4.063H12.1v2.766H5.832v4.259h7.735v2.815Zm19.241.269q-.906,0-1.909-.1-.979-.1-1.885-.245-.881-.171-1.469-.294l.147-2.619q.587.073,1.4.171.832.1,1.689.171.881.049,1.616.049a3.458,3.458,0,0,0,2.081-.514,1.945,1.945,0,0,0,.685-1.665,2.058,2.058,0,0,0-.318-1.224,1.714,1.714,0,0,0-.881-.685,3.968,3.968,0,0,0-1.322-.245H18.194v-2.693H21.45a2.479,2.479,0,0,0,1.077-.245,2.034,2.034,0,0,0,.857-.71,1.845,1.845,0,0,0,.343-1.126,1.594,1.594,0,0,0-.636-1.444,3.514,3.514,0,0,0-2.007-.441q-.734,0-1.542.073T18,137.341q-.734.073-1.224.171l-.147-2.57q.538-.147,1.322-.294a16.135,16.135,0,0,1,1.665-.269,12.083,12.083,0,0,1,1.665-.122,10.494,10.494,0,0,1,3.354.441,3.247,3.247,0,0,1,1.885,1.4,4.766,4.766,0,0,1,.587,2.521,4.136,4.136,0,0,1-.22,1.444,3.107,3.107,0,0,1-.539,1,3.8,3.8,0,0,1-.661.685q-.343.244-.636.441a6.729,6.729,0,0,1,1.273.759,2.712,2.712,0,0,1,.832,1.1,4.741,4.741,0,0,1,.294,1.836,6,6,0,0,1-.636,2.962,3.745,3.745,0,0,1-1.909,1.616A9.01,9.01,0,0,1,21.694,150.952Zm9.275-.269V133.376h3.256v17.306Zm10.017.269A3.978,3.978,0,0,1,38.1,150a4.052,4.052,0,0,1-.955-2.937,3.916,3.916,0,0,1,.49-2.13,2.725,2.725,0,0,1,1.444-1.126,8,8,0,0,1,2.374-.441l2.986-.269v-.734A1.468,1.468,0,0,0,44,141.136a1.983,1.983,0,0,0-1.3-.367q-.685,0-1.591.049-.881.049-1.762.122-.857.073-1.493.147l-.1-2.3q.636-.147,1.518-.294.906-.171,1.885-.269t1.811-.1a7.579,7.579,0,0,1,2.619.392,3,3,0,0,1,1.591,1.3,4.583,4.583,0,0,1,.539,2.4v5.606a.734.734,0,0,0,.367.539,2.437,2.437,0,0,0,.734.245l-.073,2.252q-.587.024-1.15.024a5.278,5.278,0,0,1-.955-.073,2.873,2.873,0,0,1-.979-.294,2.928,2.928,0,0,1-.636-.465q-.392.171-1.053.392a10.956,10.956,0,0,1-1.444.367A8.1,8.1,0,0,1,40.987,150.952Zm.783-2.423a5.26,5.26,0,0,0,.979-.1q.514-.1.955-.22a6.739,6.739,0,0,0,.734-.269v-2.815l-2.5.22a1.709,1.709,0,0,0-1.175.49,1.658,1.658,0,0,0-.343,1.126,1.854,1.854,0,0,0,.318,1.15A1.254,1.254,0,0,0,41.77,148.528Zm9.588,2.154V138.394h3.256v.783a5.815,5.815,0,0,1,.955-.465,9.092,9.092,0,0,1,1.175-.416,4.715,4.715,0,0,1,1.224-.171,4.8,4.8,0,0,1,2.644.612,3.21,3.21,0,0,1,1.346,1.958,13.43,13.43,0,0,1,.392,3.623v6.364h-3.28v-6.193a11.156,11.156,0,0,0-.147-2.032,1.844,1.844,0,0,0-.563-1.126,1.885,1.885,0,0,0-1.224-.343,4.767,4.767,0,0,0-.93.1,5.641,5.641,0,0,0-.906.22,4.772,4.772,0,0,0-.685.294v9.081Zm14.3,0V133.376h3.256v9.645l1.444-.049,2.546-4.577h3.4l-3.109,5.777,3.28,6.511H73.046L70.4,145.811l-1.493.073v4.8Z" transform="translate(-2.453 -133.376)" fill="#333864"/>
    </g>
    <path id="Path_46690" data-name="Path 46690" d="M60,47H77.688V68.306H75.437c-5.4,0-8.105,0-10.169-1.052a9.648,9.648,0,0,1-4.216-4.216C60,60.974,60,58.273,60,52.869Z" transform="translate(-2.99 -28.106)" fill="#333864"/>
    <path id="Path_46691" data-name="Path 46691" d="M133.688,47H116V68.306h2.251c5.4,0,8.105,0,10.169-1.052a9.648,9.648,0,0,0,4.216-4.216c1.052-2.064,1.052-4.765,1.052-10.169Z" transform="translate(-36.478 -28.106)" fill="#333864"/>
    <path id="Path_46692" data-name="Path 46692" d="M55.789,3.951C55,5.5,55,7.525,55,11.578V14.07h45.024V11.578c0-4.053,0-6.079-.789-7.627A7.236,7.236,0,0,0,96.073.789C94.525,0,92.5,0,88.446,0H66.578C62.525,0,60.5,0,58.951.789A7.236,7.236,0,0,0,55.789,3.951Zm24.99,2.073a1.206,1.206,0,0,1,0,2.023l-3.816,2.479A1.206,1.206,0,0,1,75.1,9.514V4.556a1.206,1.206,0,0,1,1.863-1.011Z" fill="#333864" fill-rule="evenodd"/>
    <path id="Path_46693" data-name="Path 46693" d="M55.789,3.951C55,5.5,55,7.525,55,11.578V14.07h45.024V11.578c0-4.053,0-6.079-.789-7.627A7.236,7.236,0,0,0,96.073.789C94.525,0,92.5,0,88.446,0H66.578C62.525,0,60.5,0,58.951.789A7.236,7.236,0,0,0,55.789,3.951Zm24.99,2.073a1.206,1.206,0,0,1,0,2.023l-3.816,2.479A1.206,1.206,0,0,1,75.1,9.514V4.556a1.206,1.206,0,0,1,1.863-1.011Z" fill="#333864" fill-rule="evenodd"/>
  </g>
</svg>
