<svg xmlns="http://www.w3.org/2000/svg" width="10.324" height="19.616" viewBox="0 0 10.324 19.616">
  <path id="XMLID_835_" d="M77.033,10.448h2.24V19.3a.323.323,0,0,0,.33.316h3.8a.323.323,0,0,0,.33-.316V10.489h2.576a.325.325,0,0,0,.327-.28l.391-3.259a.308.308,0,0,0-.081-.247A.336.336,0,0,0,86.7,6.6H83.731V4.555c0-.616.345-.928,1.027-.928H86.7a.323.323,0,0,0,.33-.316V.319A.323.323,0,0,0,86.7,0H84.025c-.019,0-.061,0-.122,0a5.259,5.259,0,0,0-3.35,1.212,3.288,3.288,0,0,0-1.168,3V6.6H77.033a.323.323,0,0,0-.33.316v3.217A.323.323,0,0,0,77.033,10.448Z" transform="translate(-76.703)" fill="#1f262e"/>
</svg>
