<svg xmlns="http://www.w3.org/2000/svg" width="16" height="15.999" viewBox="0 0 16 15.999">
  <g id="globe" transform="translate(0 -0.022)">
    <g id="Group_12" data-name="Group 12" transform="translate(0 0.022)">
      <path id="Path_15" data-name="Path 15" d="M7.99.022a8.012,8.012,0,0,0-.859.046,7.551,7.551,0,0,0-.774.124L6.21.224a8,8,0,0,0-3.946,2.21q-.15.154-.294.317A8.009,8.009,0,0,0,13.718,13.628q.15-.154.294-.317A8.009,8.009,0,0,0,7.99.022ZM2.619,2.835c.042-.044.086-.086.129-.128s.1-.1.15-.145.091-.082.136-.122.1-.091.156-.135.094-.077.142-.115.107-.085.162-.127.1-.072.148-.107.111-.08.167-.117.1-.067.153-.1.115-.073.172-.107l.158-.092.178-.1.16-.084c.061-.031.122-.06.184-.089s.109-.051.164-.075l.19-.08.166-.066c.065-.025.13-.048.2-.07L5.7.919C5.763.9,5.83.878,5.9.859L6.066.81,6.131.795A6.624,6.624,0,0,0,4.424,3.565a8.967,8.967,0,0,1-1.829-.7Zm-.384.43a9.276,9.276,0,0,0,2.026.806,13.854,13.854,0,0,0-.539,3.694H.521A7.459,7.459,0,0,1,2.235,3.264Zm0,9.534A7.46,7.46,0,0,1,.521,8.3h3.2a13.852,13.852,0,0,0,.539,3.694A9.282,9.282,0,0,0,2.235,12.8Zm3.829,2.455c-.054-.014-.11-.031-.165-.048s-.135-.04-.2-.061-.112-.038-.167-.057-.131-.046-.2-.071l-.165-.066-.191-.08L4.815,14.8l-.187-.09c-.053-.027-.107-.053-.16-.082s-.12-.065-.18-.1-.1-.06-.156-.091-.116-.072-.174-.109-.1-.065-.151-.1-.113-.078-.169-.119-.1-.07-.146-.107-.109-.085-.163-.128-.094-.075-.14-.114-.1-.091-.157-.136-.091-.08-.135-.121-.1-.1-.15-.146-.087-.084-.129-.128L2.594,13.2a8.961,8.961,0,0,1,1.829-.7,6.626,6.626,0,0,0,1.706,2.771Zm1.659.232C6.581,15.323,5.58,14.131,4.95,12.37a13.567,13.567,0,0,1,2.774-.327v3.442Zm0-3.976a14.059,14.059,0,0,0-2.942.351A13.356,13.356,0,0,1,4.256,8.3H7.723V11.51Zm0-3.745H4.256A13.353,13.353,0,0,1,4.782,4.2a14.064,14.064,0,0,0,2.942.351Zm0-3.745A13.553,13.553,0,0,1,4.95,3.692C5.58,1.932,6.581.739,7.723.577V4.019Zm6.022-.754a7.46,7.46,0,0,1,1.714,4.5h-3.2a13.852,13.852,0,0,0-.539-3.694A9.285,9.285,0,0,0,13.746,3.264ZM9.915.809c.056.014.112.032.167.048s.135.04.2.061.112.038.167.057.131.046.2.071l.165.066.191.08.163.074.187.09c.053.027.107.053.16.082s.12.065.18.1.1.06.156.091.116.072.174.109.1.065.151.1.113.078.169.118.1.07.146.107.109.084.163.128.094.075.14.114.1.091.157.136.091.08.135.121.1.1.15.146.087.084.129.128l.023.025a8.961,8.961,0,0,1-1.829.7A6.626,6.626,0,0,0,9.849.793ZM8.257.577C9.4.739,10.4,1.932,11.031,3.692a13.567,13.567,0,0,1-2.774.327V.577Zm0,3.976A14.059,14.059,0,0,0,11.2,4.2a13.356,13.356,0,0,1,.526,3.562H8.257Zm0,3.745h3.467A13.353,13.353,0,0,1,11.2,11.86h0a14.064,14.064,0,0,0-2.942-.351Zm0,7.187V12.044a13.553,13.553,0,0,1,2.774.327C10.4,14.131,9.4,15.323,8.257,15.485Zm5.1-2.258c-.042.044-.086.085-.129.128s-.1.1-.15.146-.09.08-.135.121-.1.092-.156.136-.094.077-.142.115-.107.085-.162.127-.1.072-.148.107-.111.08-.167.117-.1.067-.153.1-.115.072-.173.107l-.157.092-.178.1-.16.084c-.061.031-.122.06-.184.089s-.109.051-.164.075l-.19.08-.166.066c-.065.025-.131.048-.2.071s-.111.039-.167.057-.133.041-.2.061l-.168.048-.065.016A6.624,6.624,0,0,0,11.556,12.5a8.967,8.967,0,0,1,1.829.7Zm.384-.43a9.276,9.276,0,0,0-2.026-.806A13.854,13.854,0,0,0,12.259,8.3h3.2A7.459,7.459,0,0,1,13.746,12.8Z" transform="translate(0 -0.022)"/>
    </g>
  </g>
</svg>
