<svg id="instagram_1_" data-name="instagram (1)" xmlns="http://www.w3.org/2000/svg" width="19.538" height="19.538" viewBox="0 0 19.538 19.538">
  <path id="Path_11919" data-name="Path 11919" d="M13.717,0H5.82A5.827,5.827,0,0,0,0,5.82v7.9a5.827,5.827,0,0,0,5.82,5.82h7.9a5.827,5.827,0,0,0,5.82-5.82V5.82A5.827,5.827,0,0,0,13.717,0Zm3.855,13.717a3.855,3.855,0,0,1-3.855,3.855H5.82a3.855,3.855,0,0,1-3.855-3.855V5.82A3.855,3.855,0,0,1,5.82,1.966h7.9A3.855,3.855,0,0,1,17.572,5.82v7.9Z" fill="#1f262e"/>
  <path id="Path_11920" data-name="Path 11920" d="M138.053,133a5.053,5.053,0,1,0,5.053,5.053A5.059,5.059,0,0,0,138.053,133Zm0,8.141a3.088,3.088,0,1,1,3.088-3.088A3.088,3.088,0,0,1,138.053,141.141Z" transform="translate(-128.284 -128.284)" fill="#1f262e"/>
  <circle id="Ellipse_358" data-name="Ellipse 358" cx="1.211" cy="1.211" r="1.211" transform="translate(13.621 3.543)" fill="#1f262e"/>
</svg>
