<svg xmlns="http://www.w3.org/2000/svg" width="17.542" height="15.73" viewBox="0 0 17.542 15.73">
  <path id="XMLID_827_" d="M17.142,29.912a6.286,6.286,0,0,1-.848.339,4.223,4.223,0,0,0,.764-1.471.328.328,0,0,0-.093-.337.263.263,0,0,0-.321-.024,6.35,6.35,0,0,1-1.974.854A3.621,3.621,0,0,0,12.034,28.1a3.962,3.962,0,0,0-3.766,4.124,4.6,4.6,0,0,0,.031.533,9.422,9.422,0,0,1-6.617-3.845.272.272,0,0,0-.241-.113.282.282,0,0,0-.222.153,4.427,4.427,0,0,0-.51,2.074A4.361,4.361,0,0,0,1.6,33.7a3.059,3.059,0,0,1-.5-.246.262.262,0,0,0-.278,0,.316.316,0,0,0-.142.262c0,.018,0,.037,0,.055a4.23,4.23,0,0,0,1.843,3.547c-.1-.01-.191-.026-.286-.046a.269.269,0,0,0-.265.1.332.332,0,0,0-.058.3,3.916,3.916,0,0,0,2.759,2.764A6.25,6.25,0,0,1,.314,41.5a.283.283,0,0,0-.3.2.326.326,0,0,0,.114.365A9.523,9.523,0,0,0,5.62,43.827a9.448,9.448,0,0,0,7.569-3.641,12.191,12.191,0,0,0,2.623-7.522c0-.113,0-.227,0-.341a7.767,7.767,0,0,0,1.685-1.954A.333.333,0,0,0,17.473,30,.267.267,0,0,0,17.142,29.912Z" transform="translate(0.002 -28.097)" fill="#1f262e"/>
</svg>
