<svg xmlns="http://www.w3.org/2000/svg" width="210.393" height="63.261" viewBox="0 0 210.393 63.261">
  <g id="wlogo" transform="translate(-55)">
    <g id="Group_16867" data-name="Group 16867" transform="translate(148.913 18.839)">
      <path id="Path_46687" data-name="Path 46687" d="M2.453,160.61V134.3H19.942v4.43H7.769v6.394h9.861v4.353H7.769v6.7H19.942v4.43Zm30.278.424q-1.425,0-3-.154-1.541-.153-2.966-.385-1.387-.269-2.311-.462l.231-4.122q.924.116,2.2.27,1.31.153,2.658.27,1.387.078,2.542.077a5.442,5.442,0,0,0,3.274-.809A3.061,3.061,0,0,0,36.43,153.1a3.239,3.239,0,0,0-.5-1.926,2.7,2.7,0,0,0-1.387-1.079,6.244,6.244,0,0,0-2.08-.385H27.223v-4.237h5.123a3.9,3.9,0,0,0,1.695-.385,3.2,3.2,0,0,0,1.348-1.117,2.9,2.9,0,0,0,.539-1.772,2.508,2.508,0,0,0-1-2.273,5.53,5.53,0,0,0-3.159-.693q-1.156,0-2.427.116t-2.427.27q-1.156.116-1.926.27l-.231-4.045q.847-.231,2.08-.462a25.392,25.392,0,0,1,2.619-.424,19.017,19.017,0,0,1,2.619-.193,16.515,16.515,0,0,1,5.277.693,5.11,5.11,0,0,1,2.966,2.2,7.5,7.5,0,0,1,.924,3.968,6.508,6.508,0,0,1-.347,2.273,4.89,4.89,0,0,1-.847,1.579,5.973,5.973,0,0,1-1.04,1.079q-.539.385-1,.693a10.588,10.588,0,0,1,2,1.194,4.267,4.267,0,0,1,1.31,1.733,7.46,7.46,0,0,1,.462,2.889,9.435,9.435,0,0,1-1,4.661,5.893,5.893,0,0,1-3,2.542A14.179,14.179,0,0,1,32.732,161.034Zm14.6-.424V133.376h5.123V160.61Zm15.764.424a6.261,6.261,0,0,1-4.545-1.5,6.377,6.377,0,0,1-1.5-4.622,6.163,6.163,0,0,1,.77-3.351,4.288,4.288,0,0,1,2.273-1.772,12.585,12.585,0,0,1,3.736-.693l4.7-.424v-1.156a2.31,2.31,0,0,0-.693-1.926,3.121,3.121,0,0,0-2.042-.578q-1.079,0-2.5.077-1.387.078-2.773.193-1.348.116-2.35.231l-.154-3.621q1-.231,2.388-.462,1.425-.269,2.966-.424t2.851-.154a11.926,11.926,0,0,1,4.122.616,4.726,4.726,0,0,1,2.5,2.042,7.212,7.212,0,0,1,.847,3.775V156.1a1.155,1.155,0,0,0,.578.847,3.835,3.835,0,0,0,1.156.385L75.3,160.88q-.924.038-1.81.038a8.306,8.306,0,0,1-1.5-.116,4.522,4.522,0,0,1-1.541-.462,4.608,4.608,0,0,1-1-.732q-.616.269-1.656.616a17.24,17.24,0,0,1-2.273.578A12.741,12.741,0,0,1,63.092,161.034Zm1.233-3.814a8.278,8.278,0,0,0,1.541-.154q.809-.153,1.5-.347a10.607,10.607,0,0,0,1.156-.424v-4.43l-3.929.347a2.689,2.689,0,0,0-1.849.77,2.61,2.61,0,0,0-.539,1.772,2.918,2.918,0,0,0,.5,1.81A1.973,1.973,0,0,0,64.324,157.22Zm15.088,3.39V141.273h5.123v1.233a9.149,9.149,0,0,1,1.5-.732,14.307,14.307,0,0,1,1.849-.655,7.42,7.42,0,0,1,1.926-.27,7.557,7.557,0,0,1,4.16.963,5.051,5.051,0,0,1,2.119,3.082,21.135,21.135,0,0,1,.616,5.7V160.61H91.546v-9.746a17.555,17.555,0,0,0-.231-3.2,2.9,2.9,0,0,0-.886-1.772,2.967,2.967,0,0,0-1.926-.539,7.5,7.5,0,0,0-1.464.154,8.878,8.878,0,0,0-1.425.347,7.511,7.511,0,0,0-1.079.462V160.61Zm22.5,0V133.376h5.123v15.177l2.273-.077,4.006-7.2h5.354l-4.892,9.091,5.162,10.246h-5.393l-4.16-7.666-2.35.116v7.55Z" transform="translate(-2.453 -133.376)" fill="#fff"/>
    </g>
    <path id="Path_46690" data-name="Path 46690" d="M60,47H87.835V80.528H84.292c-8.5,0-12.755,0-16-1.655a15.183,15.183,0,0,1-6.635-6.635C60,68.991,60,64.739,60,56.236Z" transform="translate(-1.837 -17.267)" fill="#fff"/>
    <path id="Path_46691" data-name="Path 46691" d="M143.835,47H116V80.528h3.543c8.5,0,12.755,0,16-1.655a15.182,15.182,0,0,0,6.635-6.635c1.655-3.248,1.655-7.5,1.655-16Z" transform="translate(-22.411 -17.267)" fill="#fff"/>
    <path id="Path_46692" data-name="Path 46692" d="M56.241,6.217C55,8.653,55,11.842,55,18.219v3.922h70.852V18.219c0-6.377,0-9.566-1.241-12a11.387,11.387,0,0,0-4.976-4.976C117.2,0,114.01,0,107.633,0H73.219c-6.377,0-9.566,0-12,1.241A11.387,11.387,0,0,0,56.241,6.217ZM95.567,9.479a1.9,1.9,0,0,1,0,3.183l-6.005,3.9a1.9,1.9,0,0,1-2.932-1.592V7.17a1.9,1.9,0,0,1,2.932-1.592Z" fill="#fff" fill-rule="evenodd"/>
    <path id="Path_46693" data-name="Path 46693" d="M56.241,6.217C55,8.653,55,11.842,55,18.219v3.922h70.852V18.219c0-6.377,0-9.566-1.241-12a11.387,11.387,0,0,0-4.976-4.976C117.2,0,114.01,0,107.633,0H73.219c-6.377,0-9.566,0-12,1.241A11.387,11.387,0,0,0,56.241,6.217ZM95.567,9.479a1.9,1.9,0,0,1,0,3.183l-6.005,3.9a1.9,1.9,0,0,1-2.932-1.592V7.17a1.9,1.9,0,0,1,2.932-1.592Z" fill="#fff" fill-rule="evenodd"/>
  </g>
</svg>
