<svg xmlns="http://www.w3.org/2000/svg" width="20.961" height="15.139" viewBox="0 0 20.961 15.139">
  <path id="XMLID_823_" d="M20.144,47.217c-.757-.923-2.154-1.3-4.821-1.3H5.638c-2.729,0-4.15.4-4.9,1.384C0,48.259,0,49.67,0,51.624v3.724c0,3.785.872,5.707,5.638,5.707h9.684c2.314,0,3.6-.332,4.425-1.147.851-.835,1.213-2.2,1.213-4.56V51.624C20.961,49.564,20.9,48.144,20.144,47.217ZM13.457,54l-4.4,2.359a.661.661,0,0,1-.664-.021.7.7,0,0,1-.326-.594v-4.7a.7.7,0,0,1,.325-.593.661.661,0,0,1,.663-.023l4.4,2.343a.7.7,0,0,1,0,1.231Z" transform="translate(0 -45.917)" fill="#1f262e"/>
</svg>
